<?xml version="1.0" encoding="UTF-8"?>
<!DOCTYPE svg PUBLIC "-//W3C//DTD SVG 1.1//EN" "http://www.w3.org/Graphics/SVG/1.1/DTD/svg11.dtd">
<svg xmlns="http://www.w3.org/2000/svg" version="1.1" width="104px" height="98px" style="shape-rendering:geometricPrecision; text-rendering:geometricPrecision; image-rendering:optimizeQuality; fill-rule:evenodd; clip-rule:evenodd" xmlns:xlink="http://www.w3.org/1999/xlink">
<g><path style="opacity:1" fill="#fefefe" d="M -0.5,-0.5 C 34.1667,-0.5 68.8333,-0.5 103.5,-0.5C 103.5,32.1667 103.5,64.8333 103.5,97.5C 68.8333,97.5 34.1667,97.5 -0.5,97.5C -0.5,64.8333 -0.5,32.1667 -0.5,-0.5 Z"/></g>
<g><path style="opacity:1" fill="#a4b4bd" d="M 43.5,21.5 C 49.5,20.1667 55.5,20.1667 61.5,21.5C 55.4813,22.6234 49.4813,22.6234 43.5,21.5 Z"/></g>
<g><path style="opacity:1" fill="#707d8f" d="M 27.5,38.5 C 27.3284,37.5084 27.6618,36.8417 28.5,36.5C 28.4346,36.9382 28.6012,37.2716 29,37.5C 31.4725,35.7015 33.1392,33.3682 34,30.5C 36.9433,28.0994 39.7766,25.5994 42.5,23C 49.4504,20.7868 51.7838,22.9535 49.5,29.5C 47.6916,29.5086 46.0249,29.0086 44.5,28C 45.7112,27.1072 45.7112,26.2739 44.5,25.5C 44.1667,26.1667 43.8333,26.8333 43.5,27.5C 45.0694,29.583 46.9027,31.583 49,33.5C 49.4955,35.4727 49.6621,37.4727 49.5,39.5C 45.6341,41.3111 42.6341,40.4778 40.5,37C 37.3511,35.9654 34.6844,36.6321 32.5,39C 34.3261,39.2917 36.1595,39.125 38,38.5C 39.6624,38.3875 40.8291,39.0542 41.5,40.5C 38.2476,42.0424 35.0809,43.7091 32,45.5C 31.228,45.3552 30.5613,45.0219 30,44.5C 29.4338,42.2774 28.6005,40.2774 27.5,38.5 Z"/></g>
<g><path style="opacity:1" fill="#1e2b3a" d="M 43.5,21.5 C 49.4813,22.6234 55.4813,22.6234 61.5,21.5C 70.0816,27.0857 75.9149,34.7524 79,44.5C 79.8151,49.3522 79.6484,54.0189 78.5,58.5C 78.5654,58.0618 78.3988,57.7284 78,57.5C 76.1881,59.3003 74.3548,60.9669 72.5,62.5C 72.5,61.8333 72.1667,61.5 71.5,61.5C 72.0893,59.6023 72.256,57.6023 72,55.5C 73.6851,53.9825 75.1851,52.3159 76.5,50.5C 76.0302,49.537 75.3635,49.537 74.5,50.5C 73.8333,49.1667 72.8333,48.1667 71.5,47.5C 67.191,44.1787 62.5243,42.512 57.5,42.5C 56.8333,42.5 56.1667,42.5 55.5,42.5C 48.7346,41.2061 44.7346,43.8728 43.5,50.5C 43.5,51.5 43.5,52.5 43.5,53.5C 41.6913,49.0795 42.6913,45.2461 46.5,42C 40.0106,42.7427 34.3439,45.4094 29.5,50C 33.2071,53.8495 37.5404,56.6829 42.5,58.5C 44.1667,59.1667 45.8333,59.8333 47.5,60.5C 46.7611,60.369 46.0944,60.5357 45.5,61C 47.2182,61.346 48.8849,61.846 50.5,62.5C 51.657,65.7844 51.8236,69.1177 51,72.5C 48.5027,74.4782 45.6693,74.9782 42.5,74C 40.8588,72.871 39.8588,71.371 39.5,69.5C 42.2281,71.2881 45.2281,71.7881 48.5,71C 49.5536,69.6124 49.7203,68.1124 49,66.5C 45.1972,69.5746 42.3638,68.9079 40.5,64.5C 40.8333,63.8333 41.1667,63.1667 41.5,62.5C 42.4287,63.6888 42.762,65.0222 42.5,66.5C 45.2257,66.7361 47.559,65.9028 49.5,64C 44.6862,62.0923 40.0196,59.9257 35.5,57.5C 33.8525,60.4538 34.5192,62.6205 37.5,64C 33.1939,64.1724 31.5272,62.0057 32.5,57.5C 31.5721,55.4009 30.0721,53.7343 28,52.5C 27.376,50.5355 27.876,48.8689 29.5,47.5C 29.0814,46.3279 28.4147,45.3279 27.5,44.5C 26.5091,48.4454 26.1758,52.4454 26.5,56.5C 26.9893,59.324 28.656,60.6574 31.5,60.5C 30.925,64.1547 31.925,67.1547 34.5,69.5C 33.8333,69.5 33.5,69.8333 33.5,70.5C 32.2719,69.6935 31.2719,68.6935 30.5,67.5C 30.2451,65.0326 29.2451,63.0326 27.5,61.5C 25.0836,58.6653 24.0836,55.3319 24.5,51.5C 24.6545,46.8956 25.6545,42.5623 27.5,38.5C 28.6005,40.2774 29.4338,42.2774 30,44.5C 30.5613,45.0219 31.228,45.3552 32,45.5C 35.0809,43.7091 38.2476,42.0424 41.5,40.5C 40.8291,39.0542 39.6624,38.3875 38,38.5C 36.1595,39.125 34.3261,39.2917 32.5,39C 34.6844,36.6321 37.3511,35.9654 40.5,37C 42.6341,40.4778 45.6341,41.3111 49.5,39.5C 49.6621,37.4727 49.4955,35.4727 49,33.5C 46.9027,31.583 45.0694,29.583 43.5,27.5C 43.8333,26.8333 44.1667,26.1667 44.5,25.5C 45.7112,26.2739 45.7112,27.1072 44.5,28C 46.0249,29.0086 47.6916,29.5086 49.5,29.5C 51.7838,22.9535 49.4504,20.7868 42.5,23C 39.7766,25.5994 36.9433,28.0994 34,30.5C 33.1392,33.3682 31.4725,35.7015 29,37.5C 28.6012,37.2716 28.4346,36.9382 28.5,36.5C 30.5958,34.5667 32.0958,32.2334 33,29.5C 35.9087,25.9587 39.4087,23.2921 43.5,21.5 Z"/></g>
<g><path style="opacity:1" fill="#23172a" d="M 55.5,42.5 C 56.1667,42.5 56.8333,42.5 57.5,42.5C 59.5869,43.5846 60.9202,45.2512 61.5,47.5C 60.9529,58.3578 55.6196,61.6912 45.5,57.5C 44.3995,56.3951 43.7329,55.0618 43.5,53.5C 43.5,52.5 43.5,51.5 43.5,50.5C 44.2133,53.2411 45.88,55.2411 48.5,56.5C 57.7622,58.7355 61.2622,55.0688 59,45.5C 58.2917,44.6195 57.4584,43.9528 56.5,43.5C 55.8333,43.5 55.5,43.1667 55.5,42.5 Z"/></g>
<g><path style="opacity:1" fill="#813452" d="M 56.5,43.5 C 57.4584,43.9528 58.2917,44.6195 59,45.5C 61.2622,55.0688 57.7622,58.7355 48.5,56.5C 51.2476,56.5983 51.9143,55.5983 50.5,53.5C 54.9083,53.938 56.5749,51.938 55.5,47.5C 56.7899,48.0577 57.6232,49.0577 58,50.5C 58.6004,47.9047 58.1004,45.5713 56.5,43.5 Z"/></g>
<g><path style="opacity:1" fill="#728292" d="M 32.5,57.5 C 30.4352,57.4828 28.4352,57.1495 26.5,56.5C 26.1758,52.4454 26.5091,48.4454 27.5,44.5C 28.4147,45.3279 29.0814,46.3279 29.5,47.5C 27.876,48.8689 27.376,50.5355 28,52.5C 30.0721,53.7343 31.5721,55.4009 32.5,57.5 Z"/></g>
<g><path style="opacity:1" fill="#919eb1" d="M 61.5,47.5 C 62.4511,48.9187 62.7845,50.5853 62.5,52.5C 65.9484,51.6099 68.9484,49.9432 71.5,47.5C 72.8333,48.1667 73.8333,49.1667 74.5,50.5C 66.9463,57.4317 57.9463,60.765 47.5,60.5C 45.8333,59.8333 44.1667,59.1667 42.5,58.5C 43.791,58.7373 44.791,58.404 45.5,57.5C 55.6196,61.6912 60.9529,58.3578 61.5,47.5 Z"/></g>
<g><path style="opacity:1" fill="#be596e" d="M 55.5,42.5 C 55.5,43.1667 55.8333,43.5 56.5,43.5C 58.1004,45.5713 58.6004,47.9047 58,50.5C 57.6232,49.0577 56.7899,48.0577 55.5,47.5C 55.1583,46.6618 54.4916,46.3284 53.5,46.5C 52.8166,44.8235 51.4832,44.1568 49.5,44.5C 49.5,45.5 49.5,46.5 49.5,47.5C 48.8614,48.0968 48.528,48.9302 48.5,50C 48.3866,51.6991 49.0532,52.8658 50.5,53.5C 51.9143,55.5983 51.2476,56.5983 48.5,56.5C 45.88,55.2411 44.2133,53.2411 43.5,50.5C 44.7346,43.8728 48.7346,41.2061 55.5,42.5 Z"/></g>
<g><path style="opacity:1" fill="#e1ecf3" d="M 43.5,53.5 C 43.7329,55.0618 44.3995,56.3951 45.5,57.5C 44.791,58.404 43.791,58.7373 42.5,58.5C 37.5404,56.6829 33.2071,53.8495 29.5,50C 34.3439,45.4094 40.0106,42.7427 46.5,42C 42.6913,45.2461 41.6913,49.0795 43.5,53.5 Z"/></g>
<g><path style="opacity:1" fill="#151b2c" d="M 53.5,46.5 C 54.4916,46.3284 55.1583,46.6618 55.5,47.5C 56.5749,51.938 54.9083,53.938 50.5,53.5C 49.0532,52.8658 48.3866,51.6991 48.5,50C 48.528,48.9302 48.8614,48.0968 49.5,47.5C 51.1284,48.8528 52.4617,48.5195 53.5,46.5 Z"/></g>
<g><path style="opacity:1" fill="#ebf2f6" d="M 57.5,42.5 C 62.5243,42.512 67.191,44.1787 71.5,47.5C 68.9484,49.9432 65.9484,51.6099 62.5,52.5C 62.7845,50.5853 62.4511,48.9187 61.5,47.5C 60.9202,45.2512 59.5869,43.5846 57.5,42.5 Z"/></g>
<g><path style="opacity:1" fill="#ecdbdd" d="M 53.5,46.5 C 52.4617,48.5195 51.1284,48.8528 49.5,47.5C 49.5,46.5 49.5,45.5 49.5,44.5C 51.4832,44.1568 52.8166,44.8235 53.5,46.5 Z"/></g>
<g><path style="opacity:1" fill="#6c798b" d="M 54.5,22.5 C 57.2492,22.2739 59.9159,22.6072 62.5,23.5C 64.1901,26.0237 66.3568,28.0237 69,29.5C 69.5518,32.6149 71.2185,34.9482 74,36.5C 75.2965,40.1752 74.2965,42.8419 71,44.5C 59.6827,40.6677 59.8493,38.8344 71.5,39C 67.3057,35.4637 63.639,35.9637 60.5,40.5C 57.9159,39.6072 55.2492,39.2739 52.5,39.5C 52.3341,34.4889 52.5007,29.4889 53,24.5C 53.7172,23.9558 54.2172,23.2891 54.5,22.5 Z"/></g>
<g><path style="opacity:1" fill="#1b273c" d="M 64.5,30.5 C 66.4904,30.9931 66.4904,32.1598 64.5,34C 61.5467,34.7178 58.88,35.7178 56.5,37C 57.1667,36 57.8333,35 58.5,34C 61.0193,33.4136 63.0193,32.2469 64.5,30.5 Z"/></g>
<g><path style="opacity:1" fill="#182637" d="M 38.5,30.5 C 42.5092,31.5206 45.8426,33.6873 48.5,37C 48,37.1667 47.5,37.3333 47,37.5C 44.8586,35.5124 42.3586,34.1791 39.5,33.5C 38.6143,32.675 38.281,31.675 38.5,30.5 Z"/></g>
<g><path style="opacity:1" fill="#1e2b3e" d="M 58.5,25.5 C 61.3892,25.999 62.0558,27.499 60.5,30C 59.1279,30.4017 57.7946,30.9017 56.5,31.5C 55.479,30.9984 55.3123,30.3317 56,29.5C 57.0674,28.8095 58.2341,28.3095 59.5,28C 58.7476,27.3292 58.4142,26.4959 58.5,25.5 Z"/></g>
<g><path style="opacity:1" fill="#5b687a" d="M 26.5,56.5 C 28.4352,57.1495 30.4352,57.4828 32.5,57.5C 31.5272,62.0057 33.1939,64.1724 37.5,64C 34.5192,62.6205 33.8525,60.4538 35.5,57.5C 40.0196,59.9257 44.6862,62.0923 49.5,64C 47.559,65.9028 45.2257,66.7361 42.5,66.5C 42.762,65.0222 42.4287,63.6888 41.5,62.5C 41.1667,63.1667 40.8333,63.8333 40.5,64.5C 42.3638,68.9079 45.1972,69.5746 49,66.5C 49.7203,68.1124 49.5536,69.6124 48.5,71C 45.2281,71.7881 42.2281,71.2881 39.5,69.5C 37.8333,69.5 36.1667,69.5 34.5,69.5C 31.925,67.1547 30.925,64.1547 31.5,60.5C 28.656,60.6574 26.9893,59.324 26.5,56.5 Z"/></g>
<g><path style="opacity:1" fill="#0f1d2f" d="M 71.5,61.5 C 70.5755,64.1313 68.9088,64.7979 66.5,63.5C 69.8237,62.8408 71.1571,60.8408 70.5,57.5C 64.9576,59.4742 59.291,61.3075 53.5,63C 50.6888,72.5279 53.6888,75.1946 62.5,71C 63.7433,69.8455 64.7433,68.5122 65.5,67C 69.1827,67.3371 71.516,65.8371 72.5,62.5C 74.3548,60.9669 76.1881,59.3003 78,57.5C 78.3988,57.7284 78.5654,58.0618 78.5,58.5C 78.1667,59.1667 77.8333,59.8333 77.5,60.5C 74.9881,62.465 73.6548,65.1317 73.5,68.5C 69.7779,70.0928 66.4445,72.2595 63.5,75C 59.6019,76.9923 55.7685,76.8256 52,74.5C 49.1009,76.3911 45.9342,76.8911 42.5,76C 40.1376,73.1508 37.1376,71.3175 33.5,70.5C 33.5,69.8333 33.8333,69.5 34.5,69.5C 36.1667,69.5 37.8333,69.5 39.5,69.5C 39.8588,71.371 40.8588,72.871 42.5,74C 45.6693,74.9782 48.5027,74.4782 51,72.5C 51.8236,69.1177 51.657,65.7844 50.5,62.5C 48.8849,61.846 47.2182,61.346 45.5,61C 46.0944,60.5357 46.7611,60.369 47.5,60.5C 57.9463,60.765 66.9463,57.4317 74.5,50.5C 75.3635,49.537 76.0302,49.537 76.5,50.5C 75.1851,52.3159 73.6851,53.9825 72,55.5C 72.256,57.6023 72.0893,59.6023 71.5,61.5 Z"/></g>
<g><path style="opacity:1" fill="#617084" d="M 71.5,61.5 C 72.1667,61.5 72.5,61.8333 72.5,62.5C 71.516,65.8371 69.1827,67.3371 65.5,67C 64.7433,68.5122 63.7433,69.8455 62.5,71C 53.6888,75.1946 50.6888,72.5279 53.5,63C 59.291,61.3075 64.9576,59.4742 70.5,57.5C 71.1571,60.8408 69.8237,62.8408 66.5,63.5C 68.9088,64.7979 70.5755,64.1313 71.5,61.5 Z"/></g>
<g><path style="opacity:1" fill="#a5b1bf" d="M 77.5,60.5 C 78.1542,63.494 78.8208,66.494 79.5,69.5C 79.4099,71.2278 79.0766,72.8944 78.5,74.5C 76.838,75.3267 75.5046,76.4933 74.5,78C 60.2361,85.1002 45.9027,85.2669 31.5,78.5C 25.3671,73.8566 24.0338,68.1899 27.5,61.5C 29.2451,63.0326 30.2451,65.0326 30.5,67.5C 30.7438,70.2626 32.0771,72.4293 34.5,74C 37.3616,74.9305 39.695,76.5971 41.5,79C 42.8333,79.1667 44.1667,79.3333 45.5,79.5C 50.8176,78.7309 56.1509,78.5642 61.5,79C 64.1667,77.3333 66.8333,75.6667 69.5,74C 71.4641,72.549 72.7974,70.7157 73.5,68.5C 73.6548,65.1317 74.9881,62.465 77.5,60.5 Z"/></g>
<g><path style="opacity:1" fill="#536073" d="M 30.5,67.5 C 31.2719,68.6935 32.2719,69.6935 33.5,70.5C 37.1376,71.3175 40.1376,73.1508 42.5,76C 45.9342,76.8911 49.1009,76.3911 52,74.5C 55.7685,76.8256 59.6019,76.9923 63.5,75C 66.4445,72.2595 69.7779,70.0928 73.5,68.5C 72.7974,70.7157 71.4641,72.549 69.5,74C 66.8333,75.6667 64.1667,77.3333 61.5,79C 56.1509,78.5642 50.8176,78.7309 45.5,79.5C 44.1667,79.3333 42.8333,79.1667 41.5,79C 39.695,76.5971 37.3616,74.9305 34.5,74C 32.0771,72.4293 30.7438,70.2626 30.5,67.5 Z"/></g>
<g><path style="opacity:1" fill="#142337" d="M 61.5,62.5 C 64.3764,65.5824 63.5431,67.5824 59,68.5C 56.2829,68.0456 55.4495,66.7123 56.5,64.5C 59.7985,68.6908 61.4652,68.0241 61.5,62.5 Z"/></g>
</svg>
